<svg width="70" height="70" viewBox="0 0 70 70" fill="none" xmlns="http://www.w3.org/2000/svg">
<circle cx="37" cy="37" r="33" fill="#FFF2AF"/>
<circle cx="33" cy="33" r="33" fill="#DB8FFF" fill-opacity="0.58"/>
<path d="M19.662 45.084C19.102 45.084 18.612 44.958 18.192 44.706C17.8 44.454 17.604 44.104 17.604 43.656C18.22 43.04 18.528 41.402 18.528 38.742C18.528 37.146 18.402 34.822 18.15 31.77C17.87 28.858 17.73 26.562 17.73 24.882L17.814 22.572C17.842 21.9 17.856 21.13 17.856 20.262C17.856 19.478 17.716 18.484 17.436 17.28C17.1 16.02 16.932 15.138 16.932 14.634C16.932 13.654 18.01 13.164 20.166 13.164H20.796C22.308 13.164 23.624 13.626 24.744 14.55C25.64 15.334 26.396 16.468 27.012 17.952C27.432 18.96 27.796 20.36 28.104 22.152C28.272 23.72 28.356 24.952 28.356 25.848V27.192V29.166C28.3 29.278 28.272 29.39 28.272 29.502C28.272 29.726 28.286 29.894 28.314 30.006C28.342 30.118 28.356 30.258 28.356 30.426C28.356 31.322 28.216 32.4 27.936 33.66C27.684 34.892 27.306 36.152 26.802 37.44C25.542 40.52 24.128 42.704 22.56 43.992C21.636 44.72 20.67 45.084 19.662 45.084ZM20.544 42.648C21.58 42.004 22.49 41.08 23.274 39.876C24.058 38.644 24.66 37.286 25.08 35.802C25.836 33.058 26.214 30.286 26.214 27.486C26.214 25.974 26.074 24.322 25.794 22.53C25.486 20.794 24.828 19.226 23.82 17.826C23.344 17.154 22.742 16.636 22.014 16.272C21.286 15.88 20.46 15.684 19.536 15.684V15.726C19.536 18.246 19.704 22.054 20.04 27.15C20.376 32.218 20.544 36.054 20.544 38.658V42.648ZM31.6231 45.672C31.2591 45.672 30.9371 45.518 30.6571 45.21C30.3771 44.902 30.2371 44.552 30.2371 44.16C30.2371 43.74 30.3911 43.362 30.6991 43.026C31.0071 42.69 31.3711 42.522 31.7911 42.522C32.1831 42.522 32.5331 42.69 32.8411 43.026C33.1491 43.362 33.3031 43.726 33.3031 44.118C33.3031 44.566 33.1351 44.93 32.7991 45.21C32.4911 45.518 32.0991 45.672 31.6231 45.672Z" fill="#FFF2AF"/>
<path d="M40.914 54.924C39.906 54.924 39.038 54.742 38.31 54.378C37.862 54.126 37.638 53.832 37.638 53.496C37.638 53.16 37.722 52.894 37.89 52.698C38.058 52.474 38.296 52.362 38.604 52.362C38.884 52.362 39.29 52.474 39.822 52.698C40.41 52.922 40.774 53.034 40.914 53.034C41.446 53.034 41.922 52.81 42.342 52.362C42.79 51.886 43.14 51.27 43.392 50.514C43.896 49.114 44.148 47.854 44.148 46.734C44.148 45.53 43.952 44.27 43.56 42.954C43.196 41.61 42.692 40.308 42.048 39.048L41.376 37.704C40.676 36.304 40.13 35.198 39.738 34.386C39.374 33.574 39.052 32.692 38.772 31.74C38.352 30.396 38.142 29.094 38.142 27.834C38.142 26.826 38.31 25.874 38.646 24.978C39.01 24.082 39.542 23.326 40.242 22.71C40.942 22.038 41.81 21.702 42.846 21.702C43.35 21.702 43.84 21.856 44.316 22.164C44.792 22.444 45.128 22.808 45.324 23.256L44.61 24.138C43.882 24.138 43.336 23.998 42.972 23.718C42.468 23.774 42.02 24.026 41.628 24.474C41.264 24.894 40.984 25.384 40.788 25.944C40.62 26.476 40.536 27.008 40.536 27.54C40.536 28.604 40.676 29.696 40.956 30.816C41.264 31.908 41.656 32.944 42.132 33.924L45.072 39.804C45.548 40.812 45.926 41.946 46.206 43.206C46.486 44.466 46.626 45.726 46.626 46.986C46.626 48.834 46.178 50.57 45.282 52.194C44.806 53.034 44.19 53.692 43.434 54.168C42.678 54.672 41.838 54.924 40.914 54.924ZM54.6329 54.672C54.2689 54.672 53.9469 54.518 53.6669 54.21C53.3869 53.902 53.2469 53.552 53.2469 53.16C53.2469 52.74 53.4009 52.362 53.7089 52.026C54.0169 51.69 54.3809 51.522 54.8009 51.522C55.1929 51.522 55.5429 51.69 55.8509 52.026C56.1589 52.362 56.3129 52.726 56.3129 53.118C56.3129 53.566 56.1449 53.93 55.8089 54.21C55.5009 54.518 55.1089 54.672 54.6329 54.672Z" fill="#FFF2AF"/>
</svg>
